<?xml version="1.0" encoding="UTF-8"?>
<svg version="1.1" xmlns="http://www.w3.org/2000/svg" width="131" height="131">
<path d="M0 0 C43.23 0 86.46 0 131 0 C131 43.23 131 86.46 131 131 C87.77 131 44.54 131 0 131 C0 87.77 0 44.54 0 0 Z " fill="#028EC9" transform="translate(0,0)"/>
<path d="M0 0 C9.24 0 18.48 0 28 0 C21.15063091 13.69873817 21.15063091 13.69873817 17.5 19.75 C16.62835613 21.21451647 15.75729697 22.67938105 14.88671875 24.14453125 C14.1913501 25.31169678 14.1913501 25.31169678 13.48193359 26.50244141 C10.73430478 31.13312391 8.02465589 35.78598243 5.3125 40.4375 C4.72710449 41.44047119 4.14170898 42.44344238 3.53857422 43.47680664 C-0.3048879 50.0692316 -4.12399045 56.67517962 -7.91894531 63.2956543 C-9.21233694 65.53842638 -10.51751564 67.7744463 -11.83496094 70.00317383 C-15.72467037 76.58187037 -15.72467037 76.58187037 -18.87890625 83.52734375 C-21.49274926 89.56080093 -21.49274926 89.56080093 -25 92 C-32.9103594 93.48653964 -41.04159991 92.79078646 -49 92 C-49.16081055 91.26587891 -49.32162109 90.53175781 -49.48730469 89.77539062 C-52.24485154 77.21104734 -55.01150203 64.66110452 -58.1875 52.1953125 C-61 41.13461538 -61 41.13461538 -61 36 C-53.08 36 -45.16 36 -37 36 C-35.35 43.92 -33.7 51.84 -32 60 C-31.20078125 58.45054688 -30.4015625 56.90109375 -29.578125 55.3046875 C-22.64701917 41.90185567 -15.56717308 28.59528627 -8.29980469 15.37207031 C-5.50140616 10.26515068 -2.75337653 5.13129263 0 0 Z " fill="#FCFDFE" transform="translate(81,20)"/>
</svg>
