<svg xmlns="http://www.w3.org/2000/svg" width="300" height="38" viewBox="0 0 300 38" fill="none">
<g clip-path="url(#clip0_427_78283)">
<path d="M212.258 15.0555L213.223 20.1937L219.73 8.03261H225.205L214.67 26.2294H210.104L207.502 15.0555H212.258Z" fill="#235AE4"/>
<path d="M213.223 20.1937L219.73 8.03261H225.205L214.67 26.2294L213.223 20.1937Z" fill="url(#paint0_linear_427_78283)"/>
<path d="M186.063 0H180.655L165.297 26.2294H171.041L174.698 19.7225H184.503L185.434 26.2294H190.718L186.063 0ZM177.312 15.0555L182.495 5.73277L183.796 15.0555H177.312ZM198.773 26.2743H193.893L190.674 8.03261H195.722L197.315 20.2049L203.822 8.03261H209.297L198.773 26.2743ZM236.154 26.2743C236.154 26.1396 236.154 24.3671 236.154 23.9408C235.637 24.785 234.919 25.4875 234.063 25.985C233.207 26.4824 232.241 26.7592 231.252 26.7903C226.697 26.7903 224.083 23.0994 224.083 18.5446C224.083 12.2621 228.57 7.47167 233.473 7.47167C236.839 7.47167 238.286 9.03108 238.768 9.99589L239.183 8.03261H243.962L240.99 22.1233C240.777 23.2101 240.668 24.3144 240.664 25.4216C240.648 25.6906 240.648 25.9604 240.664 26.2294L236.154 26.2743ZM232.744 22.3028C234.987 22.3028 237.411 20.2274 237.411 16.1213C237.411 13.4961 235.896 11.9367 233.664 11.9367C231.431 11.9367 228.997 14.0122 228.997 18.1182C228.952 20.7546 230.5 22.3028 232.744 22.3028ZM251.558 8.02139C251.564 8.6403 251.527 9.25888 251.445 9.87248C252.045 9.09602 252.821 8.47266 253.708 8.05342C254.595 7.63419 255.569 7.43099 256.55 7.46045C261.363 7.46045 262.754 11.6226 261.957 15.2014L259.59 26.2182H254.62L256.864 15.6726C257.313 13.642 256.314 11.9031 254.205 11.9031C252.096 11.9031 250.84 13.642 250.357 15.6726L248.113 26.2182H243.222L246.206 12.1387C246.427 11.0531 246.54 9.94823 246.543 8.84036C246.559 8.57136 246.559 8.3016 246.543 8.03261L251.558 8.02139ZM277.013 14.8985C276.857 14.0262 276.386 13.2418 275.688 12.6953C274.991 12.1489 274.116 11.8788 273.232 11.9367C270.831 11.9367 268.206 14.0122 268.206 18.1182C268.154 18.6635 268.22 19.2135 268.399 19.7311C268.578 20.2487 268.866 20.7219 269.243 21.1186C269.621 21.5154 270.079 21.8264 270.587 22.0307C271.096 22.235 271.642 22.3278 272.189 22.3028C273.058 22.3034 273.909 22.0514 274.638 21.5774C275.367 21.1034 275.943 20.4278 276.295 19.6328L280.367 21.2258C279.668 22.8936 278.491 24.3167 276.983 25.3152C275.475 26.3136 273.705 26.8426 271.897 26.8352C270.756 26.8924 269.616 26.711 268.549 26.3025C267.483 25.894 266.513 25.2675 265.702 24.463C264.891 23.6584 264.257 22.6936 263.84 21.6301C263.423 20.5666 263.233 19.4278 263.281 18.2865C263.222 16.9008 263.443 15.5174 263.93 14.2189C264.418 12.9203 265.161 11.7331 266.117 10.7281C267.073 9.72309 268.221 8.92079 269.494 8.36903C270.766 7.81727 272.137 7.52735 273.524 7.51655C278.482 7.51655 280.85 10.669 281.377 13.6195L277.013 14.8985ZM286.874 18.4099C286.824 18.9661 286.893 19.5265 287.078 20.0536C287.262 20.5807 287.557 21.0623 287.942 21.466C288.328 21.8698 288.796 22.1864 289.314 22.3946C289.832 22.6028 290.389 22.6977 290.947 22.673C291.778 22.6947 292.599 22.4848 293.318 22.0668C294.037 21.6488 294.626 21.0391 295.019 20.3059L298.788 22.1906C298.004 23.6583 296.816 24.8711 295.365 25.6861C293.914 26.501 292.26 26.8842 290.599 26.7903C289.488 26.8232 288.383 26.628 287.351 26.2168C286.319 25.8056 285.383 25.1871 284.599 24.3995C283.816 23.6119 283.203 22.6721 282.797 21.638C282.391 20.6039 282.202 19.4976 282.241 18.3875C282.241 11.6563 287.132 7.47167 292.012 7.47167C297.083 7.47167 300 10.6914 300 15.1341C299.981 16.2483 299.807 17.3546 299.484 18.4212L286.874 18.4099ZM295.389 15.0443C295.461 14.5763 295.425 14.0982 295.285 13.6461C295.144 13.1939 294.903 12.7797 294.578 12.4349C294.254 12.09 293.855 11.8235 293.413 11.6555C292.97 11.4876 292.495 11.4226 292.023 11.4655C290.967 11.4582 289.94 11.8076 289.107 12.4571C288.274 13.1067 287.685 14.0183 287.435 15.0443H295.389Z" fill="#235AE4"/>
<path d="M131.551 26.4538C131.22 26.4538 130.897 26.3557 130.622 26.172C130.347 25.9884 130.133 25.7273 130.006 25.4219C129.88 25.1164 129.847 24.7803 129.911 24.4561C129.976 24.1318 130.135 23.834 130.369 23.6002C130.603 23.3664 130.9 23.2072 131.225 23.1427C131.549 23.0782 131.885 23.1113 132.19 23.2378C132.496 23.3643 132.757 23.5786 132.941 23.8535C133.124 24.1284 133.222 24.4516 133.222 24.7822C133.224 25.0021 133.182 25.2201 133.098 25.4236C133.015 25.6271 132.892 25.812 132.736 25.9675C132.581 26.123 132.396 26.2461 132.192 26.3296C131.989 26.413 131.771 26.4553 131.551 26.4538ZM130.115 24.7822C130.117 25.0657 130.203 25.3422 130.362 25.5769C130.521 25.8116 130.746 25.9939 131.009 26.1008C131.272 26.2078 131.56 26.2346 131.838 26.178C132.116 26.1213 132.37 25.9837 132.57 25.7824C132.77 25.5811 132.905 25.3252 132.96 25.047C133.014 24.7688 132.985 24.4806 132.876 24.2189C132.767 23.9571 132.583 23.7335 132.347 23.5762C132.111 23.4189 131.834 23.335 131.551 23.335C131.361 23.3334 131.172 23.3699 130.997 23.4422C130.821 23.5146 130.662 23.6213 130.528 23.7561C130.394 23.891 130.289 24.0512 130.218 24.2274C130.147 24.4036 130.112 24.5922 130.115 24.7822ZM131.517 23.851C131.688 23.8432 131.859 23.866 132.022 23.9183C132.113 23.9564 132.19 24.0227 132.24 24.1076C132.291 24.1924 132.312 24.2913 132.302 24.3895C132.308 24.46 132.294 24.5305 132.262 24.5937C132.23 24.6569 132.182 24.7104 132.123 24.7485C132.045 24.797 131.956 24.8276 131.865 24.8383C131.927 24.8447 131.987 24.8641 132.041 24.895C132.095 24.9259 132.142 24.9677 132.179 25.0178C132.24 25.099 132.275 25.1967 132.28 25.2982C132.274 25.3916 132.274 25.4853 132.28 25.5787C132.268 25.6151 132.268 25.6545 132.28 25.6909H131.977C131.972 25.6537 131.972 25.6159 131.977 25.5787C131.977 25.3655 131.977 25.13 131.809 25.029C131.687 24.999 131.56 24.999 131.439 25.029H131.192V25.6685H130.866V23.851H131.517ZM131.517 24.0754H131.248V24.7373H131.54C131.82 24.7373 132.033 24.6812 132.033 24.412C132.033 24.1427 131.865 24.0754 131.472 24.0754H131.517Z" fill="#001E79"/>
<path d="M60.7944 7.0117C59.7767 6.9492 58.7582 7.11869 57.8156 7.50738C56.873 7.89607 56.0311 8.4938 55.3533 9.25545V0.0336533H49.7439V26.2294H55.286V24.1203C55.8826 24.955 56.6815 25.6245 57.6077 26.066C58.5339 26.5075 59.557 26.7066 60.5812 26.6445C65.8203 26.6445 69.5562 22.5272 69.5562 16.7944C69.5562 11.0617 66.2242 7.0117 60.7944 7.0117ZM59.5491 21.5063C57.3053 21.5063 55.2747 19.9245 55.2747 16.8281C55.2747 13.7317 57.3165 12.206 59.5491 12.206C61.7816 12.206 63.7785 13.6756 63.7785 16.8505C63.7785 20.0254 61.7704 21.5063 59.5491 21.5063Z" fill="#001E79"/>
<path d="M87.5173 23.3237V14.1468C87.5173 10.2988 85.2735 6.89952 79.2042 6.89952C73.6958 6.89952 71.2052 10.4446 70.9809 13.1259L75.962 14.1468C76.0307 13.359 76.4048 12.6293 77.0043 12.1136C77.6039 11.5979 78.3813 11.3372 79.1705 11.387C80.988 11.387 81.9303 12.3406 81.9303 13.4288C81.9303 14.0683 81.5826 14.5507 80.5729 14.719L76.1527 15.3921C73.0563 15.8521 70.5433 17.7368 70.5433 21.0015C70.5433 23.9856 72.9217 26.7006 77.039 26.7006C78.083 26.785 79.1307 26.5906 80.0749 26.1373C81.0191 25.6839 81.8259 24.9878 82.4128 24.1203C82.3959 24.8283 82.4599 25.5359 82.6035 26.2294H87.7753C87.6156 25.2688 87.5294 24.2974 87.5173 23.3237ZM81.9079 18.8362C81.9079 21.7419 80.169 22.5721 78.475 22.5721C76.7809 22.5721 76.2312 21.6297 76.2312 20.6425C76.2312 19.3299 77.14 18.7577 78.3404 18.567L81.8967 18.0061L81.9079 18.8362Z" fill="#001E79"/>
<path d="M107.655 14.4497V26.2294H101.911V15.437C101.963 15.0147 101.921 14.5862 101.789 14.1818C101.656 13.7774 101.437 13.4069 101.146 13.0966C100.855 12.7863 100.499 12.5437 100.104 12.3859C99.7091 12.2281 99.2842 12.159 98.8594 12.1835C98.4338 12.1743 98.011 12.2545 97.6184 12.419C97.2258 12.5835 96.8721 12.8286 96.5802 13.1385C96.2883 13.4483 96.0647 13.816 95.924 14.2178C95.7832 14.6195 95.7284 15.0463 95.763 15.4706V26.2294H90.019V7.46045H95.6284V9.61445C96.214 8.77173 97.0012 8.08899 97.9183 7.62849C98.8354 7.16799 99.8531 6.94438 100.879 6.97805C105.535 6.97805 107.655 10.3324 107.655 14.4497Z" fill="#001E79"/>
<path d="M115.979 0.022438V13.7654L121.678 7.46045H129.116L121.791 15.3472L129.262 26.2294H122.239L117.819 19.6216L115.979 21.6185V26.2294H110.235V0.022438H115.979Z" fill="#001E79"/>
<path d="M0 28.1141L22.415 37.134L44.8413 28.1141V0.022438H0V28.1141Z" fill="#CF2A36"/>
<path d="M17.0525 24.3446C16.4634 25.1026 15.6967 25.7038 14.8201 26.0951C13.9435 26.4865 12.9841 26.6559 12.0265 26.5884C7.46045 26.5884 4.89136 23.2228 4.89136 19.2626V7.46046H10.6129V18.1182C10.5637 18.5367 10.606 18.9609 10.7371 19.3614C10.8681 19.7619 11.0847 20.1291 11.3718 20.4375C11.6589 20.7459 12.0096 20.9882 12.3997 21.1476C12.7897 21.307 13.2098 21.3796 13.6307 21.3605C14.0557 21.3839 14.4808 21.3165 14.8777 21.1628C15.2745 21.009 15.6341 20.7725 15.9324 20.4689C16.2307 20.1653 16.4608 19.8016 16.6076 19.4021C16.7543 19.0026 16.8141 18.5764 16.7832 18.1519V7.46046H22.5272V22.875C22.5219 23.9997 22.5856 25.1237 22.7179 26.2406H17.1983C17.104 25.613 17.0553 24.9793 17.0525 24.3446ZM29.6847 20.0591C29.7027 20.4226 29.7944 20.7787 29.9544 21.1056C30.1144 21.4326 30.3392 21.7235 30.6153 21.9607C30.8913 22.1979 31.2128 22.3765 31.5601 22.4854C31.9074 22.5944 32.2732 22.6315 32.6353 22.5945C34.1049 22.5945 34.879 21.798 34.879 20.9678C34.879 20.1376 34.4303 19.7225 33.0279 19.4196L30.8066 18.9372C26.8128 18.0734 25.1973 15.8072 25.1973 13.1596C25.1973 9.72664 28.2263 6.93317 32.4109 6.93317C37.852 6.93317 39.7367 10.2988 39.9274 12.5425L35.1819 13.3278C35.1537 13.0043 35.0619 12.6894 34.9118 12.4014C34.7617 12.1134 34.5562 11.8578 34.3071 11.6494C34.058 11.4409 33.7702 11.2837 33.4602 11.1867C33.1502 11.0897 32.8241 11.0548 32.5006 11.0841C32.2594 11.0545 32.0146 11.0732 31.7807 11.1393C31.5468 11.2054 31.3284 11.3174 31.1383 11.4689C30.9482 11.6204 30.7902 11.8082 30.6735 12.0214C30.5569 12.2347 30.4839 12.469 30.4588 12.7108C30.4588 13.5074 31.0983 13.9561 31.9285 14.1019L34.4191 14.5956C38.312 15.3921 40.1967 17.7256 40.1967 20.4854C40.1967 23.694 37.751 26.8352 32.725 26.8352C26.8352 26.8352 24.9504 23.0208 24.7934 20.9454L29.6847 20.0591Z" fill="white"/>
<path d="M147.291 0.0112152V26.2294" stroke="#66666A" stroke-width="0.5" stroke-miterlimit="10"/>
</g>
<defs>
<linearGradient id="paint0_linear_427_78283" x1="214.177" y1="22.3926" x2="222.187" y2="8.52623" gradientUnits="userSpaceOnUse">
<stop offset="0.1" stop-color="#02C78F" stop-opacity="0"/>
<stop offset="0.11" stop-color="#02C78F" stop-opacity="0.02"/>
<stop offset="0.26" stop-color="#02C78F" stop-opacity="0.32"/>
<stop offset="0.4" stop-color="#02C78F" stop-opacity="0.56"/>
<stop offset="0.53" stop-color="#02C78F" stop-opacity="0.75"/>
<stop offset="0.66" stop-color="#02C78F" stop-opacity="0.89"/>
<stop offset="0.77" stop-color="#02C78F" stop-opacity="0.97"/>
<stop offset="0.85" stop-color="#02C78F"/>
</linearGradient>
<clipPath id="clip0_427_78283">
<rect width="300" height="37.134" fill="white"/>
</clipPath>
</defs>
</svg>
